<?xml version="1.0" encoding="UTF-8"?>
<svg id="Calque_1" data-name="Calque 1" xmlns="http://www.w3.org/2000/svg" viewBox="0 0 362.09 410.99">
  <defs>
    <style>
      .cls-1 {
        letter-spacing: 0em;
      }

      .cls-2 {
        letter-spacing: -.03em;
      }

      .cls-3 {
        letter-spacing: 0em;
      }

      .cls-4 {
        fill: #fff;
        font-family: MinionConceptRoman-Display, 'Minion Variable Concept';
        font-size: 21.08px;
        font-variation-settings: 'wght' 400, 'opsz' 36;
      }

      .cls-5 {
        letter-spacing: 0em;
      }

      .cls-6 {
        fill: none;
        stroke: #fff;
      }

      .cls-6, .cls-7 {
        stroke-miterlimit: 10;
      }

      .cls-8 {
        letter-spacing: 0em;
      }

      .cls-9 {
        letter-spacing: .02em;
      }

      .cls-10 {
        letter-spacing: .01em;
      }

      .cls-11 {
        letter-spacing: 0em;
      }

      .cls-12 {
        letter-spacing: .02em;
      }

      .cls-7 {
        fill: #1d1d1b;
        stroke: #1d1d1b;
      }

      .cls-13 {
        letter-spacing: -.01em;
      }

      .cls-14 {
        letter-spacing: 0em;
      }

      .cls-15 {
        letter-spacing: .03em;
      }
    </style>
  </defs>
  <rect class="cls-7" x="69.92" y="112.1" width="199.95" height="102.42" rx="3.87" ry="3.87"/>
  <polygon class="cls-7" points="308.82 186.19 308.82 137.1 336.01 118.5 336.69 202.09 308.82 186.19"/>
  <rect class="cls-7" x="270.2" y="126.75" width="21.5" height="71.57" rx=".81" ry=".81"/>
  <rect class="cls-7" x="292.03" y="134.7" width="16.46" height="54.19"/>
  <circle class="cls-7" cx="215.42" cy="71.96" r="54.78"/>
  <ellipse class="cls-7" cx="93.01" cy="90.44" rx="48.74" ry="50"/>
  <rect class="cls-7" x="102.92" y="64.11" width="92.35" height="21.18" transform="translate(-17.37 84.56) rotate(-30)"/>
  <rect class="cls-7" x="98.62" y="211.37" width="142.55" height="18.16" rx=".69" ry=".69"/>
  <rect class="cls-7" x="112.53" y="229.54" width="111.14" height="23.56"/>
  <rect class="cls-7" x="105.07" y="236.53" width="126.05" height="9.57" rx=".36" ry=".36"/>
  <ellipse class="cls-7" cx="167.9" cy="233.12" rx="51.05" ry="38.29"/>
  <rect class="cls-7" x="119.45" y="281.48" width="97.3" height="16.98" transform="translate(458.07 121.87) rotate(90)"/>
  <rect class="cls-7" x="55.2" y="155.9" width="14.4" height="42.41" rx=".54" ry=".54"/>
  <polygon class="cls-7" points="55.2 159.59 55.2 192.8 37 205.39 36.54 148.84 55.2 159.59"/>
  <rect class="cls-7" x="84.93" y="279.01" width="90.86" height="16.98" transform="translate(445.9 278.18) rotate(112.7)"/>
  <rect class="cls-7" x="158.47" y="279.45" width="92.95" height="16.98" transform="translate(400.55 -6.43) rotate(69.04)"/>
  <circle class="cls-6" cx="93.78" cy="90.81" r="41.73"/>
  <circle class="cls-6" cx="93.78" cy="90.44" r="24.1"/>
  <circle class="cls-6" cx="93.78" cy="90.44" r="42.66"/>
  <circle class="cls-6" cx="214.72" cy="71.26" r="47.42"/>
  <circle class="cls-6" cx="215.42" cy="72.68" r="31.01"/>
  <rect class="cls-7" x="67.93" y="111.32" width="199.95" height="102.42" rx="3.87" ry="3.87"/>
  <polygon class="cls-6" points="132.66 73.73 169.45 54.45 168.66 71.43 136.27 90.44 132.66 73.73"/>
  <text class="cls-4" transform="translate(116.85 149.91)"><tspan class="cls-13" x="0" y="0">R</tspan><tspan class="cls-9" x="11.91" y="0">y</tspan><tspan class="cls-11" x="20.82" y="0">a</tspan><tspan class="cls-12" x="29.34" y="0">n</tspan><tspan x="40.36" y="0"> </tspan><tspan class="cls-2" x="44.19" y="0">M</tspan><tspan class="cls-14" x="61.79" y="0">u</tspan><tspan class="cls-15" x="72.06" y="0">r</tspan><tspan x="79.49" y="0">phy</tspan><tspan class="cls-5" x="0" y="25.29">P</tspan><tspan x="10.85" y="25.29">r</tspan><tspan class="cls-1" x="17.72" y="25.29">o</tspan><tspan x="27.86" y="25.29">du</tspan><tspan class="cls-10" x="48.3" y="25.29">c</tspan><tspan class="cls-3" x="56.8" y="25.29">t</tspan><tspan class="cls-11" x="62.51" y="25.29">i</tspan><tspan class="cls-8" x="67.59" y="25.29">ons</tspan></text>
</svg>